<svg width="128" height="128" viewBox="0 0 128 128" fill="none" xmlns="http://www.w3.org/2000/svg">
  <!-- Background circle -->
  <circle cx="64" cy="64" r="60" fill="url(#gradient)" stroke="#4A5568" stroke-width="4"/>
  
  <!-- PDF document shape -->
  <rect x="28" y="20" width="60" height="80" rx="4" fill="white" stroke="#667eea" stroke-width="2"/>
  
  <!-- Document corner fold -->
  <path d="M76 20 L88 20 L88 32 L76 32 Z" fill="#f7fafc" stroke="#667eea" stroke-width="1"/>
  <path d="M76 20 L88 32 L76 32 Z" fill="#e2e8f0"/>
  
  <!-- Document lines -->
  <line x1="36" y1="36" x2="72" y2="36" stroke="#a0aec0" stroke-width="2"/>
  <line x1="36" y1="44" x2="80" y2="44" stroke="#a0aec0" stroke-width="2"/>
  <line x1="36" y1="52" x2="76" y2="52" stroke="#a0aec0" stroke-width="2"/>
  <line x1="36" y1="60" x2="68" y2="60" stroke="#a0aec0" stroke-width="2"/>
  
  <!-- Blockchain/hash symbol -->
  <g transform="translate(36, 72)">
    <!-- Chain links -->
    <circle cx="8" cy="8" r="6" fill="none" stroke="#667eea" stroke-width="2"/>
    <circle cx="20" cy="8" r="6" fill="none" stroke="#667eea" stroke-width="2"/>
    <circle cx="32" cy="8" r="6" fill="none" stroke="#667eea" stroke-width="2"/>
    
    <!-- Connection lines -->
    <line x1="14" y1="8" x2="14" y2="8" stroke="#667eea" stroke-width="2"/>
    <line x1="26" y1="8" x2="26" y2="8" stroke="#667eea" stroke-width="2"/>
  </g>
  
  <!-- Security shield -->
  <g transform="translate(48, 105)">
    <path d="M16 2 L8 6 L8 14 C8 18 12 22 16 22 C20 22 24 18 24 14 L24 6 L16 2 Z" 
          fill="#48bb78" stroke="#38a169" stroke-width="1"/>
    <!-- Checkmark in shield -->
    <path d="M12 14 L15 17 L20 10" stroke="white" stroke-width="2" fill="none"/>
  </g>
  
  <!-- Gradient definition -->
  <defs>
    <linearGradient id="gradient" x1="0%" y1="0%" x2="100%" y2="100%">
      <stop offset="0%" style="stop-color:#667eea;stop-opacity:0.1"/>
      <stop offset="100%" style="stop-color:#764ba2;stop-opacity:0.1"/>
    </linearGradient>
  </defs>
</svg>